<svg width="58" height="50" viewBox="0 0 58 50" fill="none" xmlns="http://www.w3.org/2000/svg">
<path d="M16.2216 47H41.6653L42.7961 49.809H15.2039L16.2216 47Z" fill="#F3AB0C"/>
<rect x="3" y="44" width="52" height="3" fill="#F3AB0C"/>
<rect width="58" height="44.382" fill="#F3AB0C"/>
<rect x="4.91528" y="3.92139" width="48.1695" height="36.2745" fill="#F3AB0C"/>
<path d="M17.1646 22.0185C16.8717 22.3114 16.8717 22.7863 17.1646 23.0792L21.9375 27.8521C22.2304 28.145 22.7053 28.145 22.9982 27.8521C23.2911 27.5592 23.2911 27.0844 22.9982 26.7915L18.7556 22.5488L22.9982 18.3062C23.2911 18.0133 23.2911 17.5384 22.9982 17.2455C22.7053 16.9526 22.2304 16.9526 21.9375 17.2455L17.1646 22.0185ZM39.322 21.7988L17.6949 21.7988V23.2988L39.322 23.2988V21.7988Z" fill="#322B1B"/>
</svg>
